<?xml version="1.0" encoding="UTF-8" standalone="no"?>
<!-- Created with Inkscape (http://www.inkscape.org/) -->

<svg
   version="1.1"
   id="svg1"
   width="443"
   height="194.2"
   viewBox="-1 929.5 443 194.2"
   sodipodi:docname="The pluming tales.ps"
   xmlns:inkscape="http://www.inkscape.org/namespaces/inkscape"
   xmlns:sodipodi="http://sodipodi.sourceforge.net/DTD/sodipodi-0.dtd"
   xmlns="http://www.w3.org/2000/svg"
   xmlns:svg="http://www.w3.org/2000/svg">
  <defs
     id="defs1">
    <clipPath
       clipPathUnits="userSpaceOnUse"
       id="clipPath3">
      <path
         d="M 0,0 H 3290.16 V 1440 H 0 Z"
         transform="translate(0,2.5000001e-4)"
         id="path3" />
    </clipPath>
    <clipPath
       clipPathUnits="userSpaceOnUse"
       id="clipPath5">
      <path
         d="M 0,0 H 3290.16 V 1440 H 0 Z"
         transform="translate(0,2.5000001e-4)"
         id="path5" />
    </clipPath>
    <clipPath
       clipPathUnits="userSpaceOnUse"
       id="clipPath7">
      <path
         d="M 0,0 H 3290.16 V 1440 H 0 Z"
         transform="translate(0,2.5000001e-4)"
         id="path7" />
    </clipPath>
    <clipPath
       clipPathUnits="userSpaceOnUse"
       id="clipPath9">
      <path
         d="M 0,0 H 3290.16 V 1440 H 0 Z"
         transform="translate(0,2.5000001e-4)"
         id="path9" />
    </clipPath>
    <clipPath
       clipPathUnits="userSpaceOnUse"
       id="clipPath11">
      <path
         d="M 0,0 H 3290.16 V 1440 H 0 Z"
         transform="translate(0,2.5000001e-4)"
         id="path11" />
    </clipPath>
    <clipPath
       clipPathUnits="userSpaceOnUse"
       id="clipPath13">
      <path
         d="M 0,0 H 3290.16 V 1440 H 0 Z"
         transform="translate(0,2.5000001e-4)"
         id="path13" />
    </clipPath>
    <clipPath
       clipPathUnits="userSpaceOnUse"
       id="clipPath15">
      <path
         d="M 0,0 H 3290.16 V 1440 H 0 Z"
         transform="translate(0,2.5000001e-4)"
         id="path15" />
    </clipPath>
    <clipPath
       clipPathUnits="userSpaceOnUse"
       id="clipPath17">
      <path
         d="M 0,0 H 3290.16 V 1440 H 0 Z"
         transform="translate(0,2.5000001e-4)"
         id="path17" />
    </clipPath>
    <clipPath
       clipPathUnits="userSpaceOnUse"
       id="clipPath19">
      <path
         d="M 0,0 H 3290.16 V 1440 H 0 Z"
         transform="translate(0,2.5000001e-4)"
         id="path19" />
    </clipPath>
    <clipPath
       clipPathUnits="userSpaceOnUse"
       id="clipPath21">
      <path
         d="M 0,0 H 3290.16 V 1440 H 0 Z"
         transform="translate(0,2.5000001e-4)"
         id="path21" />
    </clipPath>
    <clipPath
       clipPathUnits="userSpaceOnUse"
       id="clipPath23">
      <path
         d="M 0,0 H 3290.16 V 1440 H 0 Z"
         transform="translate(0,2.5000001e-4)"
         id="path23" />
    </clipPath>
    <clipPath
       clipPathUnits="userSpaceOnUse"
       id="clipPath25">
      <path
         d="M 0,0 H 3290.16 V 1440 H 0 Z"
         transform="translate(0,2.5000001e-4)"
         id="path25" />
    </clipPath>
    <clipPath
       clipPathUnits="userSpaceOnUse"
       id="clipPath27">
      <path
         d="M 0,0 H 3290.16 V 1440 H 0 Z"
         transform="translate(0,2.5000001e-4)"
         id="path27" />
    </clipPath>
    <clipPath
       clipPathUnits="userSpaceOnUse"
       id="clipPath29">
      <path
         d="M 0,0 H 3290.16 V 1440 H 0 Z"
         transform="translate(0,2.5000001e-4)"
         id="path29" />
    </clipPath>
  </defs>
  <sodipodi:namedview
     id="namedview1"
     pagecolor="#ffffff"
     bordercolor="#000000"
     borderopacity="0.25"
     inkscape:showpageshadow="2"
     inkscape:pageopacity="0.0"
     inkscape:pagecheckerboard="0"
     inkscape:deskcolor="#d1d1d1">
    <inkscape:page
       x="0"
       y="0"
       inkscape:label="1"
       id="page1"
       width="793.33331"
       height="1122.6667"
       margin="0"
       bleed="0" />
  </sodipodi:namedview>
  <g
     id="g1"
     inkscape:groupmode="layer"
     inkscape:label="1">
    <g
       id="group-R5">
      <path
         id="path2"
         d="m 2090.85,462.188 c -8.64,-31.36 -58.67,-53.977 -113.48,-53.977 -8.2,0 -16.5,0.488 -24.79,1.578 -98.38,11.512 -199.41,46.969 -284.51,99.859 l -3.3,2.071 3.3,2.129 c 104.16,66.023 239.27,76.445 352.51,27.304 71.51,-31.113 74.72,-62.812 70.27,-78.964 z M 1601.4,518.633 C 1495.33,440.02 1398.53,401.488 1306.68,401.488 c -9.19,0 -18.32,0.403 -27.46,1.141 -53.28,4.551 -143.9,17.98 -151.91,57.437 -5.13,25.137 24.65,54.914 88.4,88.497 50.62,23.156 106.97,34.125 167.56,32.445 66.03,2.918 137,-13.086 217,-48.988 2.96,-1.192 4.89,-3.407 5.13,-6.024 0.3,-2.668 -1.13,-5.383 -4,-7.363 z m 83.22,119.363 c -1.88,0 -3.61,0.246 -5.13,0.793 -6.82,2.473 -9.99,9.629 -9.44,21.379 v 0.301 c 17.58,106.965 115.7,191.215 163.31,201.488 16.35,3.508 23.76,-1.781 27.11,-6.863 10.97,-16.446 -3.6,-54.375 -42.12,-109.684 -9.88,-13.09 -98.52,-107.414 -133.73,-107.414 z M 443.344,501.699 c 263.562,65.281 441.047,13.379 478.035,-42.273 8.398,-12.649 8.797,-25.285 1.137,-35.504 -11.258,-15.113 -40.743,-26.184 -91.903,-26.184 -53.187,0 -129.73,11.961 -233.492,43.707 -9.281,3.653 -26.613,7.657 -46.664,12.293 -60.547,14.035 -107.016,26.282 -108.992,45.344 l -0.246,2.117 z M 99.0781,635.977 c -5.7734,-3.86 -20.2929,-5.293 -35.8008,-5.293 -20.9414,0 -43.7539,2.617 -49.7773,5.632 l -1.582,0.793 0.2461,1.778 c 0.5937,3.801 3.2109,6.914 7.9023,9.238 18.7149,9.23 66.2266,3.848 81.1366,-4.348 l 1.188,-0.64 0.097,-1.391 c 0.047,-1.531 -0.445,-3.797 -3.4099,-5.769 z M 467.785,875.781 c 9.086,12.84 18.371,26.324 27.36,39.41 41.73,60.594 84.843,123.269 142.226,166.769 l 1.824,1.38 1.485,-1.68 c 25.633,-27.95 26.472,-66.46 2.371,-108.441 -30.125,-52.594 -97.684,-103.164 -155.215,-103.164 -6.32,0 -12.547,0.593 -18.57,1.875 l -3.653,0.789 z M 416.672,1089.77 C 392.723,1014.11 300.918,898.5 223.234,893.953 l -1.484,-0.098 -0.785,1.286 c -9.531,15.656 -6.668,36.496 8.539,61.832 38.57,64.347 146.523,138.227 184.996,135.997 l 3.16,-0.14 z m 283.07,-185.688 c 8.199,11.262 17.981,25.777 29.289,42.566 42.028,62.332 99.508,147.712 146.621,167.022 10.321,3.36 24.594,5.92 34.715,-0.3 5.828,-3.6 9.387,-9.58 10.672,-17.83 V 1095 c -2.82,-40.49 -34.969,-72.64 -63.262,-101.039 -4.297,-4.297 -8.496,-8.496 -12.547,-12.645 -47.757,-40.691 -99.753,-70.171 -142.917,-81.086 l -6.618,-1.679 z M 2067.44,528.762 c -107.51,86.519 -302.43,64.539 -410.03,-9.336 -5.43,-3.899 -10.57,-3.156 -15.61,2.222 l -1.92,2.024 2.22,1.633 c 78.47,58.562 140.2,136.699 199.9,212.3 49.39,62.524 100.45,127.165 160.11,179.118 -19.46,-2.469 -64.65,-45.184 -92.6,-71.606 -11.6,-10.969 -21.58,-20.394 -28.09,-25.683 -1.44,-1.133 -3.36,-1.332 -4.99,-0.493 -1.68,0.887 -2.67,2.664 -2.52,4.543 1.53,21.434 -4.35,39.559 -16.15,49.68 -9.28,7.953 -21.78,10.371 -36.19,7.066 -49.59,-19.167 -85.83,-59.167 -120.9,-97.832 -24.94,-27.558 -50.77,-56.05 -81.59,-77.386 -4.34,-3.801 -27.55,-23.75 -47.8,-38.821 -26.72,-19.843 -31.6,-18.808 -34.12,-16.289 -2.57,2.618 -3.46,7.903 19.21,38.028 12.34,15.754 26.76,33.183 40.69,50.019 28.29,34.176 57.58,69.535 70.81,92.403 8.06,13.925 8.3,26.664 0.7,34.863 -7.76,8.344 -21.43,9.879 -34.08,3.805 -30.07,-13.485 -53.83,-36.793 -76.79,-59.364 -6.22,-6.07 -12.64,-12.394 -19.11,-18.422 l -0.64,-0.589 -0.79,-0.098 c -2.62,-0.199 -4,1.035 -4.6,1.824 -3.11,4 0.1,13.09 5.58,27.609 3.26,8.59 6.92,18.321 6.42,22.075 -2.12,16.64 -7.11,26.172 -14.76,28.297 -25.14,6.961 -78.52,-60.645 -113.84,-105.387 -17.52,-22.172 -32.69,-41.336 -41.33,-48.195 -5.38,-5.977 -10.86,-12.454 -16.69,-19.258 -24,-28.157 -48.79,-57.192 -83.51,-69.043 -9.23,-1.489 -13.19,2.168 -14.96,5.476 -4.75,8.899 1.43,24.895 7.55,31.516 10.57,15.254 21.24,31.258 31.61,46.762 31.16,46.621 63.36,94.82 102.03,136.894 1.77,1.875 3.75,3.653 5.77,5.43 5.63,5.086 10.97,9.879 11.56,16.547 -5.58,1.578 -25.93,5.824 -30.72,6.418 -10.91,-11.657 -28.05,-36.942 -47.8,-66.172 -30.62,-45.242 -65.34,-96.551 -89.73,-115.664 -7.16,-8.34 -72.89,-62.961 -88.05,-53.828 -6.77,4.097 -1.54,16.297 0.14,20.254 9.53,14.363 22.38,29.675 36,45.925 40.75,48.692 86.92,103.805 70.48,155.411 -3.26,5.824 -7.96,9.183 -14.13,9.925 -27.61,3.207 -73.58,-45.136 -87.06,-60.05 -0.74,-0.793 -2.27,-2.469 -4.1,-1.04 l -1.83,1.481 1.39,1.93 c 4.54,6.32 6.47,21.527 6.66,24.984 0.05,17.383 -3.95,28.004 -11.9,31.363 -11.31,4.789 -37.33,-1.777 -97.19,-60.25 -1.43,-1.383 -3.56,-1.679 -5.28,-0.742 -1.78,0.938 -2.72,2.867 -2.32,4.84 4.34,23.215 -1.39,45.684 -13.98,54.617 -9.33,6.617 -21.93,5.731 -36.39,-2.566 -40.352,-28.2 -68.895,-71.258 -94.082,-109.285 -12.348,-18.622 -24.004,-36.247 -36.395,-51.411 -1.437,-1.726 -3.312,-4.199 -5.68,-7.261 -24.546,-32.051 -49.781,-61.633 -67.808,-59.805 -5.379,0.496 -9.629,3.758 -12.59,9.637 l -0.445,0.886 0.297,0.942 c 24.394,78.715 78.472,147.211 130.773,213.433 l 7.059,8.938 c 0.937,1.332 1.972,3.262 1.132,4.547 -1.382,2.219 -8.144,3.75 -16.593,2.219 -6.961,-1.235 -12.098,-4.047 -12.739,-7.008 l -0.347,-0.891 c -6.567,-9.633 -8.836,-12.695 -11.008,-15.605 -2.277,-3.063 -4.402,-5.977 -11.066,-15.805 -54.473,-91.656 -163.313,-195.465 -194.575,-195.465 -0.195,0 -0.445,0 -0.64,0.051 -4.594,0.191 -6.719,2.715 -7.657,4.793 -9.23,19.695 47.313,101.187 96.348,166.078 0.25,0.391 5.582,7.508 16.598,22.223 4.394,5.875 8,10.718 8.297,11.058 3.949,6.324 9.086,11.309 13.578,15.707 4.593,4.446 8.543,8.297 8.496,11.207 0,1.039 -0.598,2.125 -1.832,3.313 -13.328,3.656 -13.379,3.601 -15.848,-0.84 -0.398,-0.641 -0.84,-1.383 -1.285,-2.223 l -0.742,-0.742 c -2.024,-1.43 -11.949,-14.863 -23.504,-30.422 C 733.82,797.512 666.559,706.887 614.211,668.176 l -0.691,-0.356 c -9.68,-3.308 -20.348,-9.382 -31.61,-15.847 -24.539,-13.977 -49.875,-28.496 -71.308,-18.078 l -2.172,1.085 1.035,2.227 c 22.223,46.914 54.129,88.695 84.992,129.141 22.766,29.828 46.32,60.695 65.828,93.382 15.262,24.5 42.074,33.633 68.004,42.422 13.531,4.645 27.555,9.387 39.555,16.25 7.062,3.903 14.222,7.805 21.437,11.657 57.332,30.914 116.598,62.867 140.942,125.231 11.8,26.67 9.332,47.51 -6.961,58.67 -22.965,15.76 -64.844,7.9 -89.539,-16.83 -23.16,-25.68 -44,-54.23 -64.2,-81.89 -22.32,-30.513 -45.386,-62.119 -71.757,-90.174 C 656.387,884.77 625.367,845.902 595.395,808.375 520.727,714.887 461.711,641.055 297.758,611.777 c -58.278,-16.203 -72.25,-9.582 -113.586,9.969 -5.578,2.617 -11.656,5.481 -18.473,8.598 -1.629,0.742 -2.715,2.324 -2.863,4.148 -0.148,1.824 0.691,3.555 2.172,4.492 7.605,5.039 11.953,5.977 19.558,7.254 90.422,21.535 157.832,85.692 217.243,151.813 16.496,18.078 26.074,30.765 33.039,40.051 18.715,24.89 19.804,25.039 76.25,31.461 l 12.84,1.429 c 75.507,30.176 164.546,83.809 161.089,168.398 -0.144,17.64 -7.058,29.49 -12.593,39.07 -4.493,7.7 -8.047,13.77 -5.485,19.6 3.063,7.06 14.176,11.9 40.992,17.93 4.493,2.02 11.309,2.27 18.473,2.56 9.727,0.4 19.801,0.84 22.813,6.33 -0.098,0.74 -0.395,1.28 -0.793,1.68 -0.637,0.54 -1.625,0.74 -2.911,0.64 l -0.441,-0.05 -0.445,0.1 c -13.383,3.51 -32.598,-2.96 -51.164,-9.24 -22.719,-7.6 -44.2,-14.81 -53.582,-2.76 -57.778,31.06 -123.758,24.54 -168.996,13.58 -3.7,-1.68 -6.915,-1.83 -9.481,-0.3 -4.984,3.01 -5.48,11.11 -6.172,22.27 -1.234,20.4 -2.965,48.35 -34.273,55.76 -130.965,7.51 -230.477,-104.4 -313.395,-210.13 -2.664,-6.227 -9.0857,-16.25 -16.4451,-27.801 -14.9648,-23.512 -37.332,-58.723 -31.5078,-70.129 6.5742,0.195 12.1484,14.52 16.6445,26.172 3.211,8.25 6.2227,16.051 9.8242,20.203 38.2302,68.645 92.0082,131.455 155.4652,181.585 30.867,28.79 133.929,84.1 173.98,59.9 16.25,-9.83 20.102,-30.97 11.41,-62.77 -5.234,-12.14 -16.984,-15.6 -28.3,-18.96 -5.575,-1.63 -10.864,-3.16 -15.258,-5.68 -58.321,-25.24 -109.586,-65.93 -148.449,-117.68 -29.875,-44.2 -38.125,-76.793 -22.567,-89.239 19.703,-15.804 75.902,2.617 121.531,50.914 45.485,48.149 85.243,102.475 125.192,171.075 l 0.496,0.88 0.984,0.25 c 53.731,14.17 127.219,22.91 172.403,-15.76 l 2.171,-1.87 -2.125,-1.88 c -9.675,-8.69 -19.554,-17.23 -29.972,-26.27 -45.09,-39.06 -91.758,-79.46 -122.278,-130.968 l -0.347,-0.441 c -4.692,-4.941 -8.934,-11.856 -13.383,-19.16 -8.395,-13.735 -17.082,-27.906 -30.172,-30.574 l -1.726,-0.344 -0.887,1.48 c -12.102,20.246 -10.719,24.149 -5.09,40.594 0.84,2.469 1.824,5.234 2.812,8.398 -0.394,6.368 -3.902,10.122 -7.058,10.469 -3.258,0.297 -6.176,-2.918 -7.457,-8.398 -5.68,-26.914 3.156,-40.59 9.629,-50.567 5.332,-8.25 9.926,-15.41 1.429,-24.691 C 360.574,760.719 258.395,647.434 135.676,647.434 c -23.012,0 -46.7658,3.945 -71.1604,12.793 -29.3359,4.734 -57.33982,0.293 -63.36716,-10.278 -2.31641,-4.051 -1.132815,-8.992 3.5625,-14.668 24.44136,-17.332 52.68746,-13.179 82.56636,-8.789 20.0507,2.91 40.7427,5.981 59.9527,1.731 l 0.594,-0.203 c 20.492,-10.571 41.535,-20.84 63.754,-31.704 64.008,-31.304 130.18,-63.66 181.934,-101.336 l 3.355,-2.421 -3.699,-1.829 c -29.582,-14.312 -64.402,-35.261 -71.461,-70.558 -2.422,-11.172 0.691,-43.07 11.113,-55.813 2.223,-2.769 4.641,-4.3 7.157,-4.64 0.25,0.59 0.496,1.531 0.543,2.121 -11.407,15.449 -14.516,33.48 -8.985,52.101 10.024,33.625 46.223,63.11 75.16,73.786 l 0.84,0.293 0.844,-0.293 c 82.766,-29.336 173.879,-56.106 270.871,-79.606 208.008,-40.051 248.801,0.34 256.305,13.68 7.359,13.027 2.816,29.769 -12.789,47.152 -26.024,28.891 -88.203,64.699 -184.598,78.371 -71.609,10.176 -184.059,10.52 -313.297,-45.527 l -0.84,-0.195 c -17.383,-0.997 -32.64,8.339 -47.511,17.382 -7.602,4.59 -14.715,8.938 -22.122,11.993 -12.492,7.316 -25.035,14.226 -37.136,20.898 -20.395,11.262 -41.532,22.859 -61.629,35.898 -1.68,1.082 -2.473,3.067 -2.028,4.993 0.446,1.968 2.028,3.355 4,3.601 78.028,9.578 155.958,38.125 238.184,87.266 l 4.887,2.91 -1.188,-5.527 c -6.566,-30.325 -4.441,-49.493 6.278,-56.895 24.047,-16.594 88.496,25.234 131.16,52.891 7.164,4.687 13.879,9.035 19.855,12.746 l 1.035,0.68 1.188,-0.438 c 7.105,-2.812 3.996,-11.707 0.691,-21.191 -3.215,-9.231 -6.867,-19.649 -3.261,-26.914 1.777,-3.504 5.136,-6.028 10.371,-7.696 33.875,-6.328 57.929,20.684 81.187,46.758 9.531,10.676 18.52,20.742 28.149,28.75 l 0.992,0.785 1.23,-0.297 c 1.782,-0.488 3.164,-1.582 3.953,-3.105 2.274,-4.5 -0.593,-12.051 -4.546,-22.473 -6.266,-16.543 -14.071,-37.137 -0.54,-46.914 9.676,-9.234 17.235,-11.363 25.676,-7.265 34.477,11.859 70.371,64.699 105.039,115.812 42.821,63.063 83.317,122.617 123.215,114.617 l 0.69,-0.144 0.5,-0.496 c 29.33,-27.555 -30.33,-101.383 -78.225,-160.747 -19.266,-23.757 -35.953,-44.492 -42.723,-57.183 2.672,-1.731 5.633,-2.426 8.993,-2.024 22.371,2.317 57.433,47.754 94.565,95.848 44.45,57.586 90.38,117.141 129.49,126.082 l 0.4,0.098 0.44,-0.051 c 6.12,-0.641 10.17,-3.207 12.05,-7.602 8.1,-18.918 -29.58,-68.05 -69.44,-120.054 -29.18,-38.031 -62.17,-81.039 -59.21,-93.383 14.33,-3.66 52.45,46.914 75.46,77.336 11.26,14.91 20.99,27.754 26.97,33.723 2.42,2.421 7.45,8.05 13.82,15.214 27.17,30.422 77.64,87.118 101.59,94.079 l 0.79,0.195 0.79,-0.297 c 4.84,-1.875 8,-5.133 9.28,-9.727 5.88,-20.445 -27.36,-64.796 -59.56,-107.757 -24.83,-33.137 -48.29,-64.399 -49.97,-79.563 l -0.3,-0.891 c -5.87,-11.05 -0.54,-18.804 3.16,-22.418 7.26,-7.113 21.29,-10.761 32.2,-4.687 14.07,6.316 25.58,16.543 36.75,26.375 8.88,7.852 18.07,15.996 28.49,22.117 l 0.54,0.293 h 0.69 c 2.08,0 3.26,-0.933 3.85,-1.773 2.23,-2.91 0.75,-8.242 -1.53,-16.242 -3.35,-11.954 -7.95,-28.25 0.74,-37.09 43.81,-33.133 103.37,44.199 161,119.011 25.97,33.684 52.79,68.496 78.47,93.836 22.81,18.618 29.68,18.864 33.09,17.082 1.68,-0.886 3.55,-2.961 3.16,-7.847 -2.77,-32.102 -108.99,-182.129 -128.99,-190.578 -12.55,-10.176 -25.83,-25.977 -23.61,-30.567 0.3,-0.547 2.37,-3.215 15.7,-0.242 41.88,29.578 78.08,69.078 113.04,107.355 40.75,44.594 82.92,90.668 134.38,121.188 l 1.04,0.348 c 4.54,0.445 6.62,-1.383 7.55,-3.012 5.78,-10.324 -20.15,-45.535 -62.91,-102.176 -29.88,-39.609 -60.79,-80.551 -68.21,-100.844 0,-13.535 3.17,-21.726 9.49,-24.394 24.15,-10.32 91.26,55.012 123.51,86.422 6.92,6.718 12.83,12.496 17.18,16.445 1.68,1.527 4.05,1.875 6.03,0.84 2.03,-0.988 3.16,-3.11 2.96,-5.332 -0.35,-3.41 -4.39,-15.707 -13.13,-39.86 -8.59,-23.894 -7.06,-44.199 4.14,-54.218 9.98,-8.887 26.62,-8.594 45.73,0.793 1.99,0.984 4.25,0.488 5.64,-1.145 1.42,-1.621 1.52,-3.945 0.24,-5.723 -24.44,-34.621 -59.46,-62.519 -93.28,-89.484 -11.17,-8.941 -23.76,-1.187 -34.87,5.625 -3.65,2.231 -7.11,4.348 -10.27,5.781 -136.3,60.051 -297.84,52.051 -411.57,-20.449 -33.44,-22.469 -49.93,-47.558 -46.42,-70.613 3.75,-25.141 30.12,-46.281 74.12,-59.559 46.87,-14.07 143.86,-5.832 154.77,-4.84 93.73,15.11 190.28,56.696 271.77,117.192 2.76,3.203 6.02,4.98 9.13,4.98 0.74,0 1.49,-0.097 2.17,-0.343 2.77,-0.79 4.74,-3.114 5.09,-5.973 0.45,-3.899 -2.07,-7.856 -6.77,-10.567 -39.9,-30.722 -55.8,-75.019 -66.07,-114.281 -2.22,-8.539 -2.82,-26.168 -0.44,-28.347 0.04,0.097 0.98,0.597 2.76,2.867 2.52,28.793 38.17,109.039 73.29,133.234 9.43,6.477 18.17,8.547 26.12,6.125 l 0.49,-0.242 c 81.44,-45.781 204.02,-105.586 328.07,-96.445 47.4,0.441 91.31,24.05 102.37,54.961 8.24,23.164 -2.47,47.957 -30.97,71.66"
         style="fill:#a47140;fill-opacity:1;fill-rule:nonzero;stroke:none"
         transform="matrix(0.13333333,0,0,-0.13333333,0,1122.6667)"
         clip-path="url(#clipPath3)" />
      <path
         id="path4"
         d="m 2942.24,723.23 c -1.49,-3.351 -2.96,-6.761 -4.49,-10.265 -14.22,-32.645 -30.37,-69.684 -65.78,-83.461 -4.3,-1.535 -8.7,-2.277 -12.89,-2.277 -6.13,0 -11.96,1.582 -16.65,4.746 -6.62,4.394 -10.32,11.308 -10.81,19.953 v 0.047 c -0.88,27.011 55.16,59.902 82.43,71.605 23.05,9.93 26.51,6.422 27.65,5.285 0.78,-0.836 1.93,-2.617 0.54,-5.633 z m -685.66,-83.406 c -0.93,0 -1.92,0.047 -2.86,0.047 l -0.79,0.195 c -6.62,2.668 -13.47,9.629 -8.59,27.805 16.25,60.746 150.28,201.836 196.84,195.172 7.61,-1.086 16.55,-6.664 16.11,-27.012 l -0.05,-0.25 c -8.2,-71.062 -126.28,-195.957 -200.66,-195.957 z m 441.95,260.649 c 12.99,27.015 30.03,52.449 46.47,77.09 8.05,12.003 16.35,24.447 24.09,36.887 9.24,12.1 17.45,25.39 25.4,38.28 15.45,25.14 31.45,51.11 55.31,68.99 14.12,8.79 28.19,7.5 39.79,-3.46 10.28,-10.57 11.96,-25.58 5.14,-44.74 -23.95,-67.27 -151.95,-171.661 -193.68,-176.551 l -4.49,-0.543 z m 11.16,-141.532 c 25.28,43.063 60.45,79.805 107.51,112.399 4.49,3.754 9.13,4.047 13.58,0.738 11.46,-10.223 1.93,-25.777 -4.99,-37.137 -1.53,-2.468 -2.96,-4.789 -4,-6.867 -24.49,-34.617 -62.76,-61.379 -108,-75.601 l -2.13,-0.696 -2.61,6.121 z m 367.37,-17.238 c -26.12,4.297 -45.44,6.324 -59.56,7.805 -39.8,4.246 -40.89,5.281 -38.46,37.726 1.13,15.754 2.91,39.559 0.44,76.059 -1.28,19.555 16.54,31.551 32.24,42.121 5.78,3.902 11.26,7.606 15.75,11.504 5.98,5.234 9.24,16.543 7.66,26.375 -0.74,4.246 -3.01,11.848 -10.47,14.965 -5.04,2.07 -9.43,2.172 -13.52,0.34 -12.01,-5.528 -19.42,-27.653 -25.98,-47.207 -3.36,-10.028 -6.52,-19.457 -10.23,-26.817 -16.64,-23.406 -244.69,-270.433 -303.96,-250.133 -10.27,3.508 -15.16,14.172 -14.46,31.653 14.17,59.312 47.85,72.695 83.5,86.918 25.14,10.023 51.16,20.347 74.03,46.914 16.79,15.164 36.59,51.512 29.98,71.066 -2.82,8.348 -10.23,13.141 -21.98,14.274 -75.21,-47.903 -137.39,-117.438 -177.63,-165.688 -1,-1.031 -88.56,-88.543 -104.5,-76.797 -3.95,2.922 -5.79,9.985 10.82,39.961 18.56,24.887 35.65,51.606 52.19,77.485 26.37,41.281 53.64,83.949 86.92,119.558 l 0.79,0.543 c 52.89,23.805 209.69,118.125 220.25,195.362 2.77,20.35 -4.89,38.27 -22.81,53.34 -43.31,18.91 -76.15,-33.54 -105.15,-79.81 -13.38,-21.33 -26.02,-41.48 -38.76,-53.384 l -16.25,-21.234 c -53.63,-69.879 -109.14,-142.129 -157.58,-217.438 -22.12,-32.351 -54.03,-55.16 -84.9,-77.242 -12.59,-9.031 -25.62,-18.367 -37.72,-28.145 l -0.65,-0.398 c -29.09,-11.848 -45.33,-13.481 -51.16,-5.141 -14.86,21.289 55.01,101.289 134.28,188.407 20.1,22.074 36.35,39.906 41.97,47.757 -4.49,3.258 -9.18,4.688 -14.32,4.196 -18.12,-1.578 -38.22,-26.125 -54.37,-45.828 -16.15,-19.657 -27.8,-33.829 -36.59,-27.555 l -1.44,0.984 0.45,1.731 c 8.39,28.695 6.47,47.062 -5.58,54.718 -24.79,15.657 -89.14,-16.644 -120.8,-44.89 -17.04,-13.086 -32.74,-27.949 -47.94,-42.375 -25.44,-24.047 -51.71,-48.942 -84.36,-65.68 -8.94,-7.113 -126.77,-76.598 -139.4,-65.484 -3.67,3.211 0,8.64 1.18,10.418 l 0.34,0.5 0.5,0.293 c 100.09,55.117 151.9,139.265 202.03,220.703 45.53,74.019 88.59,144.007 163.76,179.257 -2.13,1.43 -4.6,2.08 -7.51,2.08 h -0.05 c -31.06,-0.05 -96.69,-75.314 -128.25,-111.462 -7.45,-8.594 -13.38,-15.41 -17.29,-19.457 -24.44,-27.406 -46.86,-62.172 -70.61,-98.914 -57.93,-89.684 -123.12,-190.625 -232.01,-190.625 -6.77,0 -13.64,0.34 -20.75,1.179 l -0.79,0.204 c -34.27,16.742 -20.89,68.347 -14.46,93.136 3.06,15.657 15.75,22.914 28.05,29.926 10.81,6.125 21.97,12.496 26.62,24.789 1.63,4.301 1.08,8.942 -1.39,11.512 -1.87,1.972 -4.54,2.469 -7.7,1.43 -36.79,-13.286 -69.88,-80.395 -63.22,-128.25 2.72,-19.258 13.09,-42.715 47.22,-45.043 23.85,-1.629 42.96,1.437 58.47,9.433 2.56,1.34 5.78,0.649 8.59,0.051 0.94,-0.195 1.88,-0.391 2.76,-0.488 51.17,-4.246 95.86,25.234 139.12,53.672 20.99,13.832 42.67,28.105 64.45,37.929 l 6.22,2.817 -3.01,-6.172 c -16.15,-33.039 -29.58,-77.68 -14.13,-94.914 8.95,-9.934 26.82,-10.078 53.19,-0.547 37.39,17.234 67.86,46.863 97.34,75.512 3.7,3.601 7.41,7.207 11.11,10.761 1.88,1.828 4.64,1.977 6.72,0.496 2.12,-1.484 2.81,-4.148 1.73,-6.468 l -0.26,-0.446 c -23.5,-31.605 -29.62,-61.183 -15.6,-75.363 13.88,-14.023 43.11,-8.488 74.52,14.227 l 0.64,0.339 c 4.16,1.387 14.28,10.676 24.06,19.707 20.44,18.774 35.6,31.907 44.05,30.422 2.17,-0.39 3.8,-1.679 4.83,-3.652 l 0.55,-1.082 -0.5,-1.098 c -10.02,-21.922 -16.24,-48.738 -7.65,-59.16 4.1,-4.988 11.71,-6.219 22.57,-3.601 18.67,7.753 33.77,22.023 48.34,35.75 10.33,9.726 21.04,19.804 33.14,27.753 1.53,0.989 3.52,0.989 5.04,0 1.58,-1.035 2.37,-2.808 2.08,-4.683 -4.7,-39.707 0.74,-63.664 16.09,-71.02 3.71,-1.824 8,-2.664 12.75,-2.664 58.81,0 188.3,131.508 253.04,197.289 15.51,15.703 27.71,28.153 34.82,34.52 v 0.047 c 1.43,1.234 3.41,1.484 5.13,0.691 1.68,-0.789 2.77,-2.469 2.72,-4.344 -0.89,-8.148 -1.58,-16.589 -2.23,-24.839 -2.61,-33.582 -5.33,-68.348 -23.65,-81.684 l -0.74,-0.395 c -42.17,-12.836 -88.24,-31.308 -109.73,-70.574 -6.81,-12.39 -7.26,-28.738 -1.03,-38.816 4.34,-7.11 11.55,-10.762 20.89,-10.418 0.84,-0.051 1.68,-0.051 2.51,-0.051 58.72,0 109.19,54.473 124.5,108.059 2.52,9.828 6.22,12.394 16.74,12.195 134.77,-11.656 235.17,-63.555 268.75,-138.77 17.83,-40 13.48,-80.839 -12.2,-115.019 -47.36,-62.906 -157.29,-89.086 -294.08,-69.969 -80.89,16.094 -141.29,35.801 -195.96,63.895 -1.33,0.644 -2.33,1.093 -3.11,1.386 5.53,-7.8 33.53,-30.222 86.92,-50.23 102.81,-38.859 258.13,-67.75 357.39,-21.027 42.72,20.097 72.05,52.586 87.17,96.636 17.82,119.758 -113.69,213.098 -211.47,231.715"
         style="fill:#a47140;fill-opacity:1;fill-rule:nonzero;stroke:none"
         transform="matrix(0.13333333,0,0,-0.13333333,0,1122.6667)"
         clip-path="url(#clipPath5)" />
      <path
         id="path6"
         d="m 2262.17,1090.86 c -12,-41.84 -59.46,-182.239 -165.59,-231.274 -3.9,-2.074 -8.05,-3.109 -12,-3.109 -3.21,0 -6.32,0.687 -9.04,2.121 -5.28,2.715 -8.63,7.949 -9.47,14.668 v 0.64 c 13.33,100.797 106.41,183.064 192.74,219.904 l 4.79,2.03 z m 473.59,126.96 c -3.21,-1.14 -6.22,-7.95 -9.77,-15.8 -7.41,-16.5 -18.58,-41.44 -46.91,-50.87 -70.73,-36.1 -149.55,-32 -225.75,-28.05 -50.86,2.67 -103.45,5.38 -152.94,-4.05 -15.75,-6.12 -21.92,2.81 -28.44,12.3 -9.78,14.27 -21.98,32 -77.09,10.91 -69.39,-30.62 -173.59,-111.81 -191.57,-185.78 6.53,2.512 19.12,22.813 27.81,36.739 10.67,17.141 20.79,33.331 29.23,39.121 19.96,24.19 112.94,107.6 167.61,107.6 3.26,0 6.38,-0.3 9.34,-0.94 13.23,-2.77 22.07,-11.85 26.32,-26.96 l 0.49,-1.93 -1.72,-0.93 c -52.89,-27.96 -112.46,-64.3 -153.59,-121.989 -20.89,-25.476 -64.29,-97.828 -48.49,-126.324 5.47,-9.875 18.17,-13.625 37.62,-11.16 87.07,41.582 181.64,128.059 186.48,246.383 l 0.05,0.94 0.69,0.68 c 26.57,26.33 104.36,18.92 166.87,12.94 26.52,-2.51 49.49,-4.69 65.19,-4.14 106.47,3.95 215.66,20.35 219.76,111.51 -0.54,0.05 -0.94,-0.05 -1.19,-0.2"
         style="fill:#a47140;fill-opacity:1;fill-rule:nonzero;stroke:none"
         transform="matrix(0.13333333,0,0,-0.13333333,0,1122.6667)"
         clip-path="url(#clipPath7)" />
      <path
         id="path8"
         d="m 1152.5,123.211 c -4.54,-14.57 -23.41,-31.9493 -34.67,-37.879 -55.45,-21.4726 -100.89,-12.6328 -127.904,24.938 -32.836,45.589 -29.727,121.289 6.765,165.3 18.269,21.969 42.329,33.078 70.429,33.078 19.25,0 40.34,-5.179 62.76,-15.699 l 2.57,-1.179 0.84,2.66 c 1.58,4.98 7.36,9.129 10.57,8.941 1.73,-0.199 2.81,-1.883 3.16,-5.043 -0.49,-3.156 -0.05,-9.816 0.74,-20.937 1.09,-15.551 3.36,-47.95 -2.37,-50.422 -0.89,-0.348 -2.92,0.492 -6.12,3.902 -5.68,36.051 -29.88,63.41 -60.35,68.149 -26.82,4.25 -51.46,-10.711 -65.98,-40.09 -14.866,-33.09 -21.483,-87.321 -0.89,-128.16 11.61,-23.059 30.62,-38.0708 55.07,-43.4106 45.13,-7.5977 62.91,18.8126 73.53,34.5706 5.23,7.808 8.49,12.351 11.95,11.898 1.18,-2.957 1.18,-6.519 -0.1,-10.617"
         style="fill:#a47140;fill-opacity:1;fill-rule:nonzero;stroke:none"
         transform="matrix(0.13333333,0,0,-0.13333333,0,1122.6667)"
         clip-path="url(#clipPath9)" />
      <path
         id="path10"
         d="m 1483.03,996.723 c -0.25,-11.602 -10.02,-18.465 -19.21,-19.008 -7.21,-0.449 -15.46,3.008 -16.94,13.676 0.84,13.189 11.46,21.679 20.84,21.929 h 0.45 c 8.15,0 13.53,-6.02 14.86,-16.597"
         style="fill:#a47140;fill-opacity:1;fill-rule:nonzero;stroke:none"
         transform="matrix(0.13333333,0,0,-0.13333333,0,1122.6667)"
         clip-path="url(#clipPath11)" />
      <path
         id="path12"
         d="m 1568.91,1422.22 v -53.73 h -13.93 c -2.61,8.94 -5.18,16.2 -7.75,21.53 -2.76,5.83 -5.78,10.37 -8.99,13.49 -3.21,3.15 -6.71,5.47 -10.47,6.81 -3.7,1.34 -9.04,1.98 -16.19,1.98 h -26.13 v -174.98 c 0,-6.76 0.45,-12.24 1.29,-16.34 0.84,-4.25 2.27,-7.7 4.14,-10.27 1.93,-2.67 4.55,-4.74 7.76,-6.22 2.71,-1.24 6.66,-2.38 11.95,-3.51 v -3.8 h -80.15 v 3.8 c 3.01,0.69 5.72,1.38 8.14,2.17 3.07,0.94 5.63,2.18 7.66,3.61 2.07,1.48 3.8,3.41 5.18,5.72 1.34,2.32 2.32,5.24 3.07,9.04 0.74,3.66 1.08,8.84 1.08,15.8 v 174.98 h -25.92 c -6.03,0 -11.12,-0.5 -15.12,-1.59 -4.15,-1.13 -8.1,-3.45 -11.6,-6.96 -3.41,-3.41 -6.57,-8.25 -9.33,-14.37 -2.57,-5.58 -4.99,-12.59 -7.22,-20.89 h -14.07 v 53.73 h 196.6"
         style="fill:#a47140;fill-opacity:1;fill-rule:nonzero;stroke:none"
         transform="matrix(0.13333333,0,0,-0.13333333,0,1122.6667)"
         clip-path="url(#clipPath13)" />
      <path
         id="path14"
         d="m 1749.36,1201.32 v -4.14 h -63.31 v 4.2 c 3.81,1.23 6.57,2.27 8.4,3.25 2.27,1.24 4.24,2.92 5.78,5.09 1.57,2.17 2.71,5.28 3.55,9.53 0.79,4.05 1.13,9.98 1.13,18.02 v 45.39 c 0,15.46 -0.79,27.46 -2.37,35.7 -1.63,8.65 -4.99,15.27 -9.92,19.66 -5.04,4.44 -12,6.67 -20.79,6.67 -4.94,0 -9.48,-0.89 -13.49,-2.62 -3.9,-1.73 -8.39,-4.74 -13.43,-9.04 -5.03,-4.34 -8.89,-8.89 -11.5,-13.48 -2.72,-4.74 -4.05,-9.88 -4.05,-15.26 v -66.27 c 0,-8.06 0.19,-13.63 0.59,-17.14 0.44,-3.61 1.33,-6.72 2.62,-9.18 1.38,-2.67 3.45,-4.89 6.17,-6.57 2.32,-1.38 5.53,-2.62 9.83,-3.86 v -4.09 h -63.61 v 4.14 c 4.34,1.29 7.56,2.47 9.68,3.71 2.52,1.48 4.54,3.41 5.92,5.68 1.44,2.27 2.43,5.33 3.07,9.43 0.59,3.85 0.88,9.68 0.88,17.88 v 144.89 c 0,11.07 -0.09,18.87 -0.24,23.31 -0.2,4.55 -0.69,8.45 -1.48,11.66 -0.84,3.35 -2.03,6.12 -3.56,8.1 -1.58,2.02 -3.65,3.7 -6.27,4.88 -2.22,1.04 -5.73,1.98 -10.76,2.97 v 4.54 l 39.25,1.63 h 7.91 v -108.89 l 3.9,-0.99 0.99,1.04 c 8.88,8.94 15.95,15.3 21.04,18.81 5.08,3.51 10.11,6.18 15.01,7.96 4.84,1.72 10.12,2.61 15.7,2.61 6.07,0 11.55,-0.74 16.3,-2.12 4.59,-1.44 8.74,-3.56 12.19,-6.42 3.51,-2.82 6.37,-6.37 8.55,-10.52 2.27,-4.2 3.95,-9.29 5.04,-15.21 1.13,-5.98 1.73,-13.73 1.73,-23.01 v -65.24 c 0,-10.38 0.44,-17.29 1.33,-21.14 0.98,-4.1 2.81,-7.36 5.43,-9.73 2.32,-2.12 6.52,-4 12.79,-5.83"
         style="fill:#a47140;fill-opacity:1;fill-rule:nonzero;stroke:none"
         transform="matrix(0.13333333,0,0,-0.13333333,0,1122.6667)"
         clip-path="url(#clipPath15)" />
      <path
         id="path16"
         d="m 1812.23,1294.61 c 1.28,18.08 5.67,32.2 13.04,42.08 7.55,10.12 17.77,15.26 30.42,15.26 8.44,0 15.41,-2.32 20.69,-6.91 5.19,-4.5 9.08,-11.02 11.65,-19.32 2.47,-8.04 4.05,-18.51 4.8,-31.16 l 0.09,-2.56 h -80.9 z m 75.06,-78.67 c -7.85,-3.65 -16.79,-5.53 -26.56,-5.53 -11.71,0 -21.39,2.82 -28.74,8.4 -7.37,5.53 -12.75,13.28 -15.96,23.01 -3.11,9.48 -4.69,21.29 -4.69,35.11 v 5.63 h 108.99 c -0.44,14.28 -1.93,26.03 -4.4,35.02 -2.62,9.43 -6.32,17.28 -11.01,23.41 -4.64,6.07 -10.91,10.91 -18.72,14.42 -7.85,3.5 -17.53,5.28 -28.79,5.28 -14.32,0 -27.15,-3.46 -38.12,-10.32 -10.97,-6.87 -19.56,-16.79 -25.49,-29.44 -6.01,-12.79 -9.03,-27.75 -9.03,-44.49 0,-27.12 5.93,-47.81 17.58,-61.53 11.56,-13.59 29.04,-20.5 51.95,-20.5 8.59,0 16.54,1.19 23.66,3.61 7.11,2.37 13.72,5.73 19.7,9.97 5.54,3.95 11.71,9.39 18.37,16.15 l -7.21,7.66 c -7.11,-7.17 -14.32,-12.5 -21.53,-15.86"
         style="fill:#a47140;fill-opacity:1;fill-rule:nonzero;stroke:none"
         transform="matrix(0.13333333,0,0,-0.13333333,0,1122.6667)"
         clip-path="url(#clipPath17)" />
      <path
         id="path18"
         d="m 1303.47,127.512 c -1.53,-8.641 -4.1,-16.352 -7.66,-22.961 -3.6,-6.6721 -8.34,-12.1018 -14.12,-16.1018 -5.83,-4.0586 -12.99,-6.0781 -21.23,-6.0781 -15.07,0 -26.77,6.8672 -34.82,20.4489 -7.81,13.141 -11.76,32.149 -11.76,56.399 0,22.91 3.91,40.84 11.61,53.383 7.95,12.937 19.51,19.507 34.42,19.507 8.89,0 16.94,-2.871 23.85,-8.5 6.87,-5.57 12.3,-14.32 16.2,-25.968 3.86,-11.461 5.83,-26.032 5.83,-43.313 0,-9.238 -0.79,-18.277 -2.32,-26.816 z m 11.75,92.547 c -12.24,13.832 -30.62,20.839 -54.62,20.839 -14.37,0 -27.31,-3.117 -38.52,-9.339 -11.11,-6.168 -20,-15.75 -26.42,-28.489 -6.47,-12.851 -9.77,-28.789 -9.77,-47.511 0,-27.11 6.22,-47.809 18.46,-61.5395 12.15,-13.5703 30.18,-20.4804 53.49,-20.4804 15.5,0 29.14,3.2109 40.44,9.5312 11.21,6.2695 20,15.8906 26.13,28.6407 6.22,12.84 9.38,28.891 9.38,47.699 0,26.32 -6.27,46.719 -18.57,60.649"
         style="fill:#a47140;fill-opacity:1;fill-rule:nonzero;stroke:none"
         transform="matrix(0.13333333,0,0,-0.13333333,0,1122.6667)"
         clip-path="url(#clipPath19)" />
      <path
         id="path20"
         d="m 1629.46,80.5 v -4.1992 h -63.51 v 4.25 c 3.8,1.2305 6.56,2.3203 8.44,3.3086 2.27,1.2304 4.25,2.9609 5.78,5.0898 1.58,2.1602 2.71,5.3321 3.55,9.6211 0.79,4.0507 1.19,10.0197 1.19,18.1287 v 45.672 c 0,9.891 -0.24,18.18 -0.79,24.649 -0.54,6.562 -1.38,11.949 -2.52,15.949 -1.18,4.051 -2.67,7.359 -4.4,9.769 -1.67,2.383 -3.6,4.461 -5.72,6.231 -2.18,1.832 -4.79,3.261 -7.76,4.242 -2.96,1.051 -6.66,1.539 -11.4,1.539 -4.99,0 -9.73,-0.988 -14.03,-3.012 -4.24,-1.929 -8.84,-5.238 -13.73,-9.84 -4.88,-4.589 -8.49,-9.316 -10.71,-14.07 -2.27,-4.777 -3.41,-10.469 -3.41,-16.828 v -63.621 c 0,-9.027 0.3,-15.149 0.93,-18.7071 0.65,-3.7031 1.54,-6.5235 2.82,-8.6406 1.34,-2.2305 3.26,-4.1016 5.83,-5.6797 2.12,-1.2813 5.43,-2.5703 9.97,-3.8516 v -4.1992 h -63.55 v 4.25 c 3.8,1.2305 6.57,2.3203 8.44,3.3086 2.32,1.2304 4.25,2.9609 5.83,5.0898 1.53,2.1602 2.72,5.3321 3.56,9.6211 0.79,4.0507 1.18,10.0197 1.18,18.1287 v 45.672 c 0,10.328 -0.3,18.918 -0.89,25.488 -0.59,6.661 -1.53,12.102 -2.81,16.141 -1.29,4.25 -3.02,7.762 -5.14,10.422 -2.08,2.617 -4.2,4.699 -6.42,6.129 -2.22,1.429 -4.79,2.469 -7.75,3.211 -2.82,0.636 -6.07,0.988 -9.63,0.988 -5.14,0 -10.03,-1.191 -14.52,-3.461 -4.4,-2.269 -8.89,-5.527 -13.38,-9.73 -4.55,-4.25 -8.06,-8.789 -10.38,-13.43 -2.36,-4.738 -3.55,-9.93 -3.55,-15.41 v -65.34 c 0,-6.66 0.15,-11.84 0.54,-15.399 0.35,-3.7105 0.94,-6.6206 1.78,-8.8003 0.89,-2.2578 2.03,-4.1914 3.41,-5.6211 1.33,-1.4375 3.26,-2.7695 5.63,-3.957 1.97,-1.0313 4.74,-2.0703 8.34,-3.1016 v -4.1992 h -63.41 v 4.3008 c 3.76,1.2265 6.42,2.2695 8.25,3.2578 2.22,1.2304 4.15,2.9101 5.73,5.039 1.63,2.211 2.82,5.3321 3.61,9.5821 0.73,4.0395 1.08,10.0585 1.08,18.4105 v 75.949 c 0,7.41 -0.1,13.492 -0.35,18.082 -0.24,4.937 -1.13,8.84 -2.71,11.898 -1.63,3.219 -4.15,5.641 -7.51,7.211 -2.66,1.239 -6.17,2.321 -10.67,3.207 v 4.801 l 38.28,1.473 h 8 l -1.88,-27.75 5.73,-1.633 1.04,0.992 c 6.86,6.859 12.54,12.09 16.94,15.609 4.34,3.399 8.59,6.219 12.59,8.29 4,2.019 7.8,3.511 11.26,4.39 3.46,0.891 7.01,1.34 10.62,1.34 11.01,0 20.1,-2.57 26.96,-7.559 6.77,-4.992 11.56,-12.742 14.22,-23.16 l 1.04,-4.25 3.11,3.117 c 8.59,8.692 15.61,15.211 20.89,19.301 5.24,4.012 10.57,7.172 16,9.34 5.29,2.121 11.11,3.211 17.28,3.211 7.41,0 13.88,-1.09 19.17,-3.211 5.23,-2.117 9.73,-5.379 13.33,-9.777 3.61,-4.391 6.32,-10.032 8.05,-16.703 1.73,-6.848 2.62,-16.278 2.62,-27.989 v -65.691 c 0,-9.027 0.3,-15.149 0.89,-18.7071 0.64,-3.7031 1.58,-6.5235 2.86,-8.6406 1.28,-2.2305 3.26,-4.1016 5.78,-5.6797 2.17,-1.2813 5.43,-2.5703 9.98,-3.8516"
         style="fill:#a47140;fill-opacity:1;fill-rule:nonzero;stroke:none"
         transform="matrix(0.13333333,0,0,-0.13333333,0,1122.6667)"
         clip-path="url(#clipPath21)" />
      <path
         id="path22"
         d="m 1776.92,101.039 c -7.51,-12.3984 -18.92,-18.6679 -33.83,-18.6679 -8.15,0 -14.86,0.9883 -19.95,2.9102 -5.14,2.0273 -9.68,5.039 -13.44,9.0898 -3.85,4.1094 -6.51,9.4379 -8.05,15.8479 -1.42,6.23 -2.12,15.07 -2.12,26.332 v 46.031 c 0,5.18 1.04,10.117 3.06,14.668 2.08,4.539 5.54,9.219 10.37,13.922 4.85,4.738 9.84,8.199 14.82,10.308 4.99,2.18 10.96,3.27 17.78,3.27 28.1,0 42.37,-23.801 42.37,-70.77 0,-23.109 -3.71,-40.89 -11.01,-52.941 z m 23.85,119.211 c -9.88,13.781 -23.66,20.5 -42.17,20.5 -4.4,0 -8.65,-0.449 -12.6,-1.34 -3.9,-0.879 -8.05,-2.422 -12.34,-4.539 -4.3,-2.133 -8.55,-4.789 -12.54,-8 -4.11,-3.211 -9.74,-8.492 -16.85,-15.699 l -0.99,-1.043 -6.02,1.582 2.23,27.801 h -7.95 l -38.48,-1.473 v -4.848 c 4.44,-0.929 7.66,-1.921 9.77,-2.91 2.57,-1.191 4.7,-2.66 6.24,-4.441 1.57,-1.789 2.76,-4 3.6,-6.668 0.74,-2.524 1.23,-5.59 1.47,-9.34 0.26,-3.602 0.35,-9.621 0.35,-18.023 V 42.3203 c 0,-6.8086 -0.24,-12.3398 -0.74,-16.4922 -0.5,-4.4375 -1.48,-7.9492 -3.06,-10.6172 -1.67,-2.8203 -4.05,-4.9921 -7.11,-6.42184 -2.32,-1.07812 -5.29,-2.16797 -8.79,-3.21093 v -4.1875 h 66.17 v 4.08984 c -4.88,1.08984 -8.44,2.32031 -10.86,3.66016 -2.86,1.57027 -5.09,3.69917 -6.62,6.16797 -1.52,2.4102 -2.57,5.7305 -3.15,9.7812 -0.55,3.8516 -0.8,9.4805 -0.8,17.2305 v 40.5 l 3.41,-1.4805 c 5.63,-2.3789 11.95,-4.3007 18.71,-5.6914 6.77,-1.4179 14.48,-2.1093 22.87,-2.1093 14.82,0 27.71,3.2109 38.37,9.4804 10.57,6.2696 18.77,15.8008 24.35,28.3395 5.62,12.692 8.5,28.59 8.5,47.36 0,26.961 -5.04,47.66 -14.97,61.531"
         style="fill:#a47140;fill-opacity:1;fill-rule:nonzero;stroke:none"
         transform="matrix(0.13333333,0,0,-0.13333333,0,1122.6667)"
         clip-path="url(#clipPath23)" />
      <path
         id="path24"
         d="m 1946.65,128.75 c 0,-6.281 -1.92,-12.602 -5.73,-18.918 -3.8,-6.223 -9.18,-11.4023 -15.95,-15.4609 -6.81,-4.0508 -14.47,-6.0703 -22.76,-6.0703 -5.83,0 -10.97,0.7383 -15.31,2.3203 -4.54,1.5781 -8.35,4.5898 -11.31,8.8398 -2.92,4.1991 -4.44,9.9691 -4.44,17.0781 0,13.152 6.36,23.07 18.96,29.543 11.99,6.18 30.22,9.43 54.07,9.68 l 2.47,0.047 z m 35.11,-44.5 c -2.62,1.4805 -4.64,3.3086 -6.02,5.4297 -1.33,2.082 -2.32,4.7422 -2.96,8.1016 -0.6,3.1097 -0.99,6.5707 -1.09,10.2307 -0.1,3.547 -0.2,9.629 -0.2,18.269 v 60.641 c 0,14.816 -1.67,25.93 -4.98,33.137 -3.22,7.011 -8.16,12.242 -14.57,15.652 -6.58,3.461 -15.51,5.187 -26.58,5.187 -7.45,0 -14.91,-0.738 -22.12,-2.277 -7.26,-1.531 -14.66,-3.699 -21.98,-6.359 -7.01,-2.571 -15.85,-6.633 -26.27,-12.012 v -18.66 h 18.57 c 2.87,9.082 7.17,16.101 12.64,20.84 5.98,5.129 13.88,7.761 23.51,7.761 8.79,0 16.01,-1.793 21.39,-5.3 5.43,-3.551 9.48,-9.129 11.95,-16.641 2.41,-7.16 3.6,-17.031 3.6,-29.328 v -13.684 l -2.37,-0.097 c -32.99,-1.481 -58.08,-6.813 -74.42,-15.852 -16.1,-8.84 -23.9,-20.988 -23.9,-37.09 0,-7.648 1.68,-14.5076 5.09,-20.3006 3.3,-5.7773 8.19,-10.3164 14.46,-13.4765 6.38,-3.25 13.83,-4.8828 22.23,-4.8828 9.58,0 18.71,2.0703 27.25,6.2226 8.55,4.0977 17.93,11.3477 27.81,21.4293 l 0.99,1.039 5.92,-1.589 -0.89,-24.3402 h 42.73 V 80.5 c -4.4,1.2813 -7.61,2.5195 -9.79,3.75"
         style="fill:#a47140;fill-opacity:1;fill-rule:nonzero;stroke:none"
         transform="matrix(0.13333333,0,0,-0.13333333,0,1122.6667)"
         clip-path="url(#clipPath25)" />
      <path
         id="path26"
         d="m 2181.13,80.5 v -4.1992 h -63.71 v 4.25 c 3.8,1.2305 6.57,2.3203 8.45,3.3086 2.32,1.2304 4.24,2.9609 5.82,5.0898 1.54,2.1602 2.72,5.3321 3.56,9.6211 0.79,3.9997 1.19,10.1207 1.19,18.1287 v 45.672 c 0,8.109 -0.26,15.609 -0.74,22.277 -0.45,6.723 -1.29,12.34 -2.43,16.743 -1.18,4.597 -2.61,8.05 -4.29,10.668 -1.73,2.621 -3.8,4.832 -6.13,6.711 -2.37,1.832 -5.08,3.308 -8.09,4.39 -3.12,1.102 -6.96,1.59 -11.81,1.59 -4.89,0 -9.53,-0.988 -13.92,-2.91 -4.25,-1.879 -8.99,-5.141 -14.08,-9.731 -5.04,-4.597 -8.83,-9.238 -11.16,-13.781 -2.37,-4.648 -3.55,-9.976 -3.55,-15.957 v -64.992 c 0,-10.258 0.44,-17.277 1.42,-21.3673 1.1,-4.4531 3.17,-7.9023 6.23,-10.2812 2.62,-2.0196 6.52,-3.75 11.85,-5.2305 v -4.1992 h -63.36 v 4.25 c 3.81,1.2305 6.57,2.3203 8.4,3.3086 2.21,1.2304 4.15,2.9609 5.67,5.0898 1.58,2.1602 2.73,5.2813 3.57,9.5313 0.78,3.9885 1.18,10.0195 1.18,18.4105 v 75.949 c 0,7.461 -0.15,13.539 -0.34,18.082 -0.26,4.84 -1.2,8.84 -2.73,11.898 -1.62,3.219 -4.14,5.641 -7.5,7.211 -2.66,1.239 -6.22,2.321 -10.72,3.207 v 4.801 l 38.33,1.473 h 8 l -1.88,-27.75 5.77,-1.633 0.99,1.043 c 8.45,8.539 15.36,14.719 20.5,18.316 5.09,3.614 10.32,6.422 15.51,8.34 10.42,3.961 23.21,3.512 32.39,0.844 4.6,-1.383 8.69,-3.461 12.2,-6.274 3.5,-2.808 6.47,-6.359 8.69,-10.519 2.32,-4.238 4.1,-9.43 5.23,-15.41 1.19,-6.071 1.84,-13.918 1.84,-23.399 v -65.691 c 0,-8.188 0.19,-13.969 0.68,-17.7188 0.5,-3.961 1.44,-7.0118 2.77,-9.2891 1.38,-2.3125 3.35,-4.3008 5.87,-5.8203 2.18,-1.3399 5.59,-2.6211 10.33,-4.0508"
         style="fill:#a47140;fill-opacity:1;fill-rule:nonzero;stroke:none"
         transform="matrix(0.13333333,0,0,-0.13333333,0,1122.6667)"
         clip-path="url(#clipPath27)" />
      <path
         id="path28"
         d="m 2360.1,237.93 v -4.09 c -4,-0.988 -7.12,-2.418 -9.53,-4.301 -2.67,-2.078 -5.33,-5.379 -7.9,-9.73 -2.47,-4.188 -5.49,-10.118 -8.85,-17.579 L 2270.76,60.5508 c -6.32,-14.1797 -12.5,-25.832 -18.42,-34.6211 -5.82,-8.6406 -12.3,-15.168 -19.21,-19.50782 C 2226.26,2.17969 2218.02,0 2208.54,0 c -5.64,0 -12.1,0.640625 -19.11,1.87109 V 31.8086 h 11.21 c 1.42,-4.2969 3.2,-7.3672 5.38,-9.2891 2.57,-2.2812 6.17,-3.4101 10.71,-3.4101 3.86,0 7.36,0.7422 10.42,2.2812 2.97,1.418 6.08,3.9414 9.24,7.3985 3.11,3.4101 6.67,8.4492 10.76,15.4101 4.01,6.7227 8.59,15.4102 13.63,25.7813 l 0.45,0.9414 -49.14,132.1991 c -3.21,8.688 -5.78,14.609 -7.75,18.117 -2.07,3.653 -4.35,6.473 -6.82,8.403 -2.17,1.73 -5.18,3.097 -9.18,4.148 v 4.141 h 65.98 v -4.09 c -4.7,-1.192 -8.06,-2.379 -10.23,-3.559 -2.61,-1.429 -4.54,-3.359 -5.83,-5.679 -1.23,-2.282 -1.87,-5.141 -1.87,-8.59 0,-3.313 0.39,-6.774 1.18,-10.282 0.79,-3.5 2.03,-7.601 3.66,-12.148 l 33.19,-93.332 37.28,89.539 c 2.02,4.731 3.61,9.133 4.74,13.082 1.14,4.098 1.73,8 1.73,11.598 0,5.691 -1.63,10.082 -4.89,13.09 -2.82,2.671 -7.21,4.703 -13.43,6.281 v 4.09 h 60.25"
         style="fill:#a47140;fill-opacity:1;fill-rule:nonzero;stroke:none"
         transform="matrix(0.13333333,0,0,-0.13333333,0,1122.6667)"
         clip-path="url(#clipPath29)" />
    </g>
  </g>
</svg>
